
<svg width="400" height="400" xmlns="http://www.w3.org/2000/svg">
  <rect width="100%" height="100%" fill="#FF4D00"/>
  <text x="50%" y="50%" font-family="Arial, sans-serif" font-size="24" fill="white" dominant-baseline="middle" text-anchor="middle">
    Orange Heart
  </text>
  <path d="M50 85c-1.5 0-3-.5-4.2-1.5-12-9.6-22.3-19.5-28.5-27.4-6.4-8.2-9-15.3-7.6-21.2 1.9-8 8.4-14.1 16-15.2 6.4-1 12.8 1.6 17.5 6.8 2.8 3.1 4.5 6.7 5 7.1.5-.4 2.2-4 5-7.1 4.7-5.2 11.1-7.8 17.5-6.8 7.6 1.1 14.1 7.2 16 15.2 1.4 5.9-1.2 13-7.6 21.2-6.2 7.9-16.5 17.8-28.5 27.4-1.2 1-2.7 1.5-4.2 1.5z" fill="rgba(255,255,255,0.2)" transform="translate(150, 250) scale(0.5)"/>
</svg>
