<svg width="800" height="1000" viewBox="0 0 800 1000" xmlns="http://www.w3.org/2000/svg">
  <!-- Background -->
  <rect width="800" height="1000" fill="#FFFFFF"/>
  
  <!-- Face Shape -->
  <ellipse cx="400" cy="450" rx="180" ry="220" fill="#FFE4D6"/>
  
  <!-- Hair -->
  <path d="M220 300 Q200 200 250 150 Q300 100 400 100 Q500 100 550 150 Q600 200 580 300 L580 400 Q580 450 550 480 L250 480 Q220 450 220 400 Z" fill="#2C1810"/>
  
  <!-- Eyes -->
  <ellipse cx="340" cy="420" rx="25" ry="30" fill="#1A1A1A"/>
  <ellipse cx="460" cy="420" rx="25" ry="30" fill="#1A1A1A"/>
  <ellipse cx="345" cy="415" rx="8" ry="10" fill="#FFFFFF"/>
  <ellipse cx="465" cy="415" rx="8" ry="10" fill="#FFFFFF"/>
  
  <!-- Eyebrows -->
  <path d="M310 390 Q340 380 370 390" stroke="#2C1810" stroke-width="4" fill="none" stroke-linecap="round"/>
  <path d="M430 390 Q460 380 490 390" stroke="#2C1810" stroke-width="4" fill="none" stroke-linecap="round"/>
  
  <!-- Nose -->
  <path d="M400 450 L390 480 L410 480 Z" fill="#FFD4C0"/>
  
  <!-- Lips -->
  <path d="M360 520 Q400 540 440 520" stroke="#D30000" stroke-width="3" fill="none" stroke-linecap="round"/>
  <path d="M360 520 Q400 510 440 520" stroke="#D30000" stroke-width="3" fill="none" stroke-linecap="round"/>
  <ellipse cx="400" cy="525" rx="40" ry="12" fill="#FF6B6B" opacity="0.3"/>
  
  <!-- Neck -->
  <rect x="360" y="650" width="80" height="120" fill="#FFE4D6"/>
  
  <!-- Shoulders -->
  <path d="M280 770 Q320 750 360 770 L440 770 Q480 750 520 770" fill="#F5F5F5"/>
</svg>
